<?xml version="1.0" encoding="utf-8"?>
<!-- Generator: Adobe Illustrator 19.0.0, SVG Export Plug-In . SVG Version: 6.00 Build 0)  -->
<svg version="1.1" id="圖層_1" xmlns="http://www.w3.org/2000/svg" xmlns:xlink="http://www.w3.org/1999/xlink" x="0px" y="0px"
	 viewBox="-289 412.9 16 16" style="enable-background:new -289 412.9 16 16;" xml:space="preserve">
<style type="text/css">
	.st0{fill:#FFFFFF;}
</style>
<path class="st0" d="M-288.5,422.8c0.3,0,0.5,0.2,0.5,0.5v2.5c0,0.6,0.4,1,1,1h12c0.6,0,1-0.4,1-1v-2.5c0-0.3,0.2-0.5,0.5-0.5
	s0.5,0.2,0.5,0.5v2.5c0,1.1-0.9,2-2,2h-12c-1.1,0-2-0.9-2-2v-2.5C-289,423-288.8,422.8-288.5,422.8z"/>
<path class="st0" d="M-281.4,424.7c0.2,0.2,0.5,0.2,0.7,0c0,0,0,0,0,0l3-3c0.2-0.2,0.2-0.5,0-0.7c-0.2-0.2-0.5-0.2-0.7,0l-2.1,2.1
	v-8.8c0-0.3-0.2-0.5-0.5-0.5s-0.5,0.2-0.5,0.5v8.8l-2.1-2.1c-0.2-0.2-0.5-0.2-0.7,0c-0.2,0.2-0.2,0.5,0,0.7L-281.4,424.7z"/>
</svg>
